<svg xmlns="http://www.w3.org/2000/svg" width="720" height="440" viewBox="0 0 720 440">
<rect x="0" y="0" width="720" height="440" fill="white"/>
<style>text{font-family:Arial,Helvetica,sans-serif;fill:#111}.axis{stroke:#222;stroke-width:1}.grid{stroke:#bbb;stroke-width:.6;stroke-dasharray:3 4}.s1{fill:none;stroke:#111;stroke-width:2.2}.s2{fill:none;stroke:#555;stroke-width:2.2;stroke-dasharray:8 5}.s3{fill:none;stroke:#888;stroke-width:2.2;stroke-dasharray:2 4}.s4{fill:none;stroke:#111;stroke-width:2.2;stroke-dasharray:12 4 2 4}.bar{fill:#bbb;stroke:#222;stroke-width:1}</style>
<text x="360.0" y="26" text-anchor="middle" font-size="16" font-weight="600">FOSD and the monotone-accessibility boundary</text>
<line class="axis" x1="82" y1="55" x2="82" y2="368"/>
<line class="axis" x1="82" y1="368" x2="696" y2="368"/>
<text x="360.0" y="402" text-anchor="middle" font-size="12">Outcome x</text>
<text x="18" y="220.0" text-anchor="middle" font-size="12" transform="rotate(-90 18 220.0)">CDF</text>
<line class="grid" x1="82" y1="368.0" x2="696" y2="368.0"/>
<text x="73" y="372.0" text-anchor="end" font-size="10">0.00</text>
<line class="grid" x1="82" y1="305.4" x2="696" y2="305.4"/>
<text x="73" y="309.4" text-anchor="end" font-size="10">0.20</text>
<line class="grid" x1="82" y1="242.8" x2="696" y2="242.8"/>
<text x="73" y="246.8" text-anchor="end" font-size="10">0.40</text>
<line class="grid" x1="82" y1="180.2" x2="696" y2="180.2"/>
<text x="73" y="184.2" text-anchor="end" font-size="10">0.60</text>
<line class="grid" x1="82" y1="117.6" x2="696" y2="117.6"/>
<text x="73" y="121.6" text-anchor="end" font-size="10">0.80</text>
<line class="grid" x1="82" y1="55.0" x2="696" y2="55.0"/>
<text x="73" y="59.0" text-anchor="end" font-size="10">1.00</text>
<polyline class="s1" points="82.0,368.0 85.8,368.0 89.7,368.0 93.5,368.0 97.4,368.0 101.2,368.0 105.0,368.0 108.9,368.0 112.7,368.0 116.5,367.9 120.4,367.9 124.2,367.9 128.1,367.9 131.9,367.9 135.7,367.9 139.6,367.8 143.4,367.8 147.2,367.7 151.1,367.7 154.9,367.6 158.8,367.6 162.6,367.5 166.4,367.4 170.3,367.3 174.1,367.2 177.9,367.1 181.8,366.9 185.6,366.7 189.5,366.5 193.3,366.3 197.1,366.0 201.0,365.7 204.8,365.4 208.6,365.0 212.5,364.6 216.3,364.1 220.1,363.6 224.0,363.0 227.8,362.3 231.7,361.6 235.5,360.8 239.3,359.9 243.2,358.9 247.0,357.8 250.9,356.6 254.7,355.3 258.5,353.9 262.4,352.4 266.2,350.7 270.0,348.9 273.9,346.9 277.7,344.8 281.6,342.5 285.4,340.1 289.2,337.4 293.1,334.7 296.9,331.7 300.7,328.5 304.6,325.2 308.4,321.7 312.2,318.0 316.1,314.1 319.9,310.0 323.8,305.7 327.6,301.2 331.4,296.6 335.3,291.8 339.1,286.8 342.9,281.6 346.8,276.3 350.6,270.9 354.5,265.3 358.3,259.6 362.1,253.7 366.0,247.8 369.8,241.8 373.7,235.7 377.5,229.5 381.3,223.3 385.2,217.1 389.0,210.9 392.8,204.6 396.7,198.4 400.5,192.2 404.4,186.1 408.2,180.0 412.0,174.0 415.9,168.1 419.7,162.3 423.5,156.6 427.4,151.0 431.2,145.6 435.1,140.3 438.9,135.2 442.7,130.2 446.6,125.5 450.4,120.9 454.2,116.4 458.1,112.2 461.9,108.1 465.8,104.3 469.6,100.6 473.4,97.1 477.3,93.8 481.1,90.7 484.9,87.8 488.8,85.0 492.6,82.4 496.5,80.0 500.3,77.8 504.1,75.7 508.0,73.8 511.8,72.0 515.6,70.3 519.5,68.8 523.3,67.4 527.1,66.1 531.0,64.9 534.8,63.9 538.7,62.9 542.5,62.0 546.3,61.2 550.2,60.5 554.0,59.9 557.9,59.3 561.7,58.8 565.5,58.3 569.4,57.9 573.2,57.5 577.0,57.2 580.9,56.9 584.7,56.7 588.6,56.4 592.4,56.2 596.2,56.1 600.1,55.9 603.9,55.8 607.7,55.7 611.6,55.6 615.4,55.5 619.2,55.4 623.1,55.3 626.9,55.3 630.8,55.2 634.6,55.2 638.4,55.2 642.3,55.1 646.1,55.1 650.0,55.1 653.8,55.1 657.6,55.1 661.5,55.0 665.3,55.0 669.1,55.0 673.0,55.0 676.8,55.0 680.6,55.0 684.5,55.0 688.3,55.0 692.2,55.0 696.0,55.0"/>
<polyline class="s2" points="82.0,368.0 85.8,368.0 89.7,368.0 93.5,368.0 97.4,368.0 101.2,368.0 105.0,368.0 108.9,368.0 112.7,368.0 116.5,368.0 120.4,368.0 124.2,368.0 128.1,368.0 131.9,368.0 135.7,368.0 139.6,368.0 143.4,368.0 147.2,368.0 151.1,367.9 154.9,367.9 158.8,367.9 162.6,367.9 166.4,367.9 170.3,367.9 174.1,367.9 177.9,367.8 181.8,367.8 185.6,367.8 189.5,367.7 193.3,367.7 197.1,367.6 201.0,367.6 204.8,367.5 208.6,367.4 212.5,367.4 216.3,367.3 220.1,367.1 224.0,367.0 227.8,366.9 231.7,366.7 235.5,366.6 239.3,366.4 243.2,366.2 247.0,365.9 250.9,365.7 254.7,365.4 258.5,365.0 262.4,364.7 266.2,364.3 270.0,363.8 273.9,363.3 277.7,362.7 281.6,362.1 285.4,361.4 289.2,360.7 293.1,359.8 296.9,358.9 300.7,357.9 304.6,356.7 308.4,355.5 312.2,354.1 316.1,352.6 319.9,350.9 323.8,349.1 327.6,347.1 331.4,344.9 335.3,342.6 339.1,340.0 342.9,337.1 346.8,334.1 350.6,330.7 354.5,327.1 358.3,323.3 362.1,319.1 366.0,314.7 369.8,310.0 373.7,305.0 377.5,299.7 381.3,294.1 385.2,288.2 389.0,282.1 392.8,275.7 396.7,269.0 400.5,262.2 404.4,255.2 408.2,248.0 412.0,240.6 415.9,233.2 419.7,225.6 423.5,218.0 427.4,210.5 431.2,202.9 435.1,195.3 438.9,187.9 442.7,180.5 446.6,173.3 450.4,166.2 454.2,159.4 458.1,152.7 461.9,146.2 465.8,140.0 469.6,134.0 473.4,128.2 477.3,122.7 481.1,117.5 484.9,112.6 488.8,107.9 492.6,103.5 496.5,99.3 500.3,95.4 504.1,91.8 508.0,88.4 511.8,85.3 515.6,82.4 519.5,79.7 523.3,77.2 527.1,74.9 531.0,72.9 534.8,71.0 538.7,69.2 542.5,67.7 546.3,66.2 550.2,64.9 554.0,63.8 557.9,62.7 561.7,61.8 565.5,61.0 569.4,60.2 573.2,59.6 577.0,59.0 580.9,58.5 584.7,58.0 588.6,57.6 592.4,57.2 596.2,56.9 600.1,56.6 603.9,56.4 607.7,56.2 611.6,56.0 615.4,55.9 619.2,55.7 623.1,55.6 626.9,55.5 630.8,55.4 634.6,55.4 638.4,55.3 642.3,55.3 646.1,55.2 650.0,55.2 653.8,55.1 657.6,55.1 661.5,55.1 665.3,55.1 669.1,55.1 673.0,55.0 676.8,55.0 680.6,55.0 684.5,55.0 688.3,55.0 692.2,55.0 696.0,55.0"/>
<polyline class="s3" points="82.0,368.0 85.8,368.0 89.7,368.0 93.5,368.0 97.4,368.0 101.2,368.0 105.0,368.0 108.9,368.0 112.7,368.0 116.5,368.0 120.4,368.0 124.2,368.0 128.1,368.0 131.9,368.0 135.7,368.0 139.6,368.0 143.4,368.0 147.2,368.0 151.1,367.9 154.9,367.9 158.8,367.9 162.6,367.9 166.4,367.9 170.3,367.9 174.1,367.9 177.9,367.8 181.8,367.8 185.6,367.8 189.5,367.7 193.3,367.7 197.1,367.7 201.0,367.6 204.8,367.6 208.6,367.5 212.5,367.4 216.3,367.3 220.1,367.2 224.0,367.1 227.8,367.0 231.7,366.9 235.5,366.7 239.3,366.6 243.2,366.4 247.0,366.2 250.9,365.9 254.7,365.7 258.5,365.4 262.4,365.0 266.2,364.6 270.0,364.2 273.9,363.7 277.7,363.1 281.6,362.4 285.4,361.6 289.2,360.7 293.1,359.6 296.9,358.4 300.7,357.0 304.6,355.3 308.4,353.4 312.2,351.1 316.1,348.6 319.9,345.7 323.8,342.3 327.6,338.6 331.4,334.3 335.3,329.6 339.1,324.3 342.9,318.5 346.8,312.1 350.6,305.1 354.5,297.6 358.3,289.5 362.1,280.9 366.0,271.8 369.8,262.3 373.7,252.4 377.5,242.2 381.3,231.7 385.2,221.1 389.0,210.4 392.8,199.7 396.7,189.2 400.5,178.7 404.4,168.6 408.2,158.7 412.0,149.3 415.9,140.3 419.7,131.8 423.5,123.9 427.4,116.4 431.2,109.6 435.1,103.3 438.9,97.6 442.7,92.4 446.6,87.8 450.4,83.6 454.2,80.0 458.1,76.7 461.9,73.9 465.8,71.4 469.6,69.2 473.4,67.4 477.3,65.7 481.1,64.3 484.9,63.1 488.8,62.1 492.6,61.2 496.5,60.4 500.3,59.8 504.1,59.2 508.0,58.7 511.8,58.3 515.6,57.9 519.5,57.6 523.3,57.3 527.1,57.0 531.0,56.8 534.8,56.6 538.7,56.4 542.5,56.2 546.3,56.1 550.2,56.0 554.0,55.8 557.9,55.7 561.7,55.6 565.5,55.6 569.4,55.5 573.2,55.4 577.0,55.4 580.9,55.3 584.7,55.3 588.6,55.2 592.4,55.2 596.2,55.2 600.1,55.2 603.9,55.1 607.7,55.1 611.6,55.1 615.4,55.1 619.2,55.1 623.1,55.1 626.9,55.0 630.8,55.0 634.6,55.0 638.4,55.0 642.3,55.0 646.1,55.0 650.0,55.0 653.8,55.0 657.6,55.0 661.5,55.0 665.3,55.0 669.1,55.0 673.0,55.0 676.8,55.0 680.6,55.0 684.5,55.0 688.3,55.0 692.2,55.0 696.0,55.0"/>
<line class="s1" x1="475" y1="62" x2="503" y2="62"/>
<text x="511" y="66" font-size="10">Base</text>
<line class="s2" x1="475" y1="80" x2="503" y2="80"/>
<text x="511" y="84" font-size="10">FP monotone</text>
<line class="s3" x1="475" y1="98" x2="503" y2="98"/>
<text x="511" y="102" font-size="10">FP nonmonotone</text>
<text x="360.0" y="428" text-anchor="middle" font-size="10">Theorem illustration: nonmonotone accessibility can produce CDF crossing.</text>
</svg>
