<svg xmlns="http://www.w3.org/2000/svg" width="720" height="440" viewBox="0 0 720 440">
<style>text{font-family:Arial,Helvetica,sans-serif;fill:#111} .axis{stroke:#222;stroke-width:1} .grid{stroke:#bbb;stroke-width:.6;stroke-dasharray:3 4} .s1{fill:none;stroke:#111;stroke-width:2.2} .s2{fill:none;stroke:#555;stroke-width:2.2;stroke-dasharray:8 5} .s3{fill:none;stroke:#888;stroke-width:2.2;stroke-dasharray:2 4} .bar{fill:#bbb;stroke:#222;stroke-width:1}</style>
<text x="360.0" y="26" text-anchor="middle" font-size="16" font-weight="600">FOSD and the monotone-accessibility boundary</text>
<line class="axis" x1="82" y1="55" x2="82" y2="368"/><line class="axis" x1="82" y1="368" x2="696" y2="368"/>
<text x="360.0" y="402" text-anchor="middle" font-size="12">Outcome x</text><text x="18" y="220.0" text-anchor="middle" font-size="12" transform="rotate(-90 18 220.0)">CDF</text>
<line class="grid" x1="82" y1="368.0" x2="696" y2="368.0"/><text x="73" y="372.0" text-anchor="end" font-size="10">0.00</text><line class="grid" x1="82" y1="305.4" x2="696" y2="305.4"/><text x="73" y="309.4" text-anchor="end" font-size="10">0.20</text><line class="grid" x1="82" y1="242.8" x2="696" y2="242.8"/><text x="73" y="246.8" text-anchor="end" font-size="10">0.40</text><line class="grid" x1="82" y1="180.2" x2="696" y2="180.2"/><text x="73" y="184.2" text-anchor="end" font-size="10">0.60</text><line class="grid" x1="82" y1="117.6" x2="696" y2="117.6"/><text x="73" y="121.6" text-anchor="end" font-size="10">0.80</text><line class="grid" x1="82" y1="55.0" x2="696" y2="55.0"/><text x="73" y="59.0" text-anchor="end" font-size="10">1.00</text>
<polyline class="s1" points="82,368 120,367.9 158,367.6 197,366.0 235,360.8 274,346.9 312,318.0 351,270.9 389,210.9 427,151.0 466,104.3 504,75.7 542,62.0 581,56.9 619,55.4 658,55.1 696,55.0"/>
<polyline class="s2" points="82,368 120,368 158,367.9 197,367.6 235,366.6 274,363.3 312,354.1 351,330.7 389,282.1 427,210.5 466,140.0 504,91.8 542,67.7 581,58.5 619,55.7 658,55.1 696,55.0"/>
<polyline class="s3" points="82,368 120,368 158,367.9 197,367.7 235,366.7 274,363.7 312,351.1 351,305.1 389,210.4 427,116.4 466,71.4 504,59.2 542,56.2 581,55.3 619,55.1 658,55.0 696,55.0"/>
<line class="s1" x1="475" y1="62" x2="503" y2="62"/><text x="511" y="66" font-size="10">Base</text><line class="s2" x1="475" y1="80" x2="503" y2="80"/><text x="511" y="84" font-size="10">FP monotone</text><line class="s3" x1="475" y1="98" x2="503" y2="98"/><text x="511" y="102" font-size="10">FP nonmonotone</text>
<text x="360.0" y="428" text-anchor="middle" font-size="10">Theorem illustration: nonmonotone accessibility can produce CDF crossing.</text>
</svg>
